<?xml version="1.0" encoding="UTF-8"?>
<svg width="40" height="40" viewBox="0 0 40 40" fill="none" xmlns="http://www.w3.org/2000/svg">
  <circle cx="20" cy="20" r="19" stroke="#4CAF50" stroke-width="2"/>
  <path d="M20 8C15.5817 8 12 11.5817 12 16C12 20.4183 15.5817 24 20 24C24.4183 24 28 20.4183 28 16C28 11.5817 24.4183 8 20 8ZM20 22C16.6863 22 14 19.3137 14 16C14 12.6863 16.6863 10 20 10C23.3137 10 26 12.6863 26 16C26 19.3137 23.3137 22 20 22Z" fill="#4CAF50"/>
  <path d="M20 12C17.7909 12 16 13.7909 16 16C16 18.2091 17.7909 20 20 20C22.2091 20 24 18.2091 24 16C24 13.7909 22.2091 12 20 12ZM20 18C18.8954 18 18 17.1046 18 16C18 14.8954 18.8954 14 20 14C21.1046 14 22 14.8954 22 16C22 17.1046 21.1046 18 20 18Z" fill="#4CAF50"/>
  <path d="M20 28L24 32H16L20 28Z" fill="#4CAF50"/>
</svg> 